<?xml version="1.0" standalone="no"?>
<!DOCTYPE svg PUBLIC "-//W3C//DTD SVG 20010904//EN"
 "http://www.w3.org/TR/2001/REC-SVG-20010904/DTD/svg10.dtd">
<svg version="1.0" xmlns="http://www.w3.org/2000/svg"
 width="286.000000pt" height="286.000000pt" viewBox="0 0 286.000000 286.000000"
 preserveAspectRatio="xMidYMid meet">
<metadata>
Created by potrace 1.14, written by Peter Selinger 2001-2017
</metadata>
<g transform="translate(0.000000,286.000000) scale(0.100000,-0.100000)"
fill="#000000" stroke="none">
<path d="M2170 2598 c0 -4 -11 -10 -25 -14 -13 -3 -23 -10 -22 -14 1 -4 -1 -7
-5 -6 -5 0 -24 -21 -43 -49 -19 -27 -39 -56 -45 -62 -6 -7 -8 -13 -5 -13 3 0
-2 -14 -11 -31 -17 -33 -25 -71 -28 -129 -1 -29 -5 -34 -21 -32 -11 2 -21 8
-23 13 -2 5 -10 9 -18 9 -8 0 -14 5 -14 12 0 6 -3 9 -6 5 -4 -3 -26 5 -49 18
-64 35 -181 71 -265 80 -19 2 -35 4 -35 5 0 12 -138 18 -152 7 -9 -6 -13 -6
-13 2 0 7 -8 8 -22 2 -13 -5 -41 -11 -63 -15 -22 -3 -49 -8 -60 -10 -11 -3
-36 -9 -55 -14 -20 -5 -45 -14 -58 -21 -12 -6 -22 -9 -22 -6 0 3 -13 -1 -30
-10 -16 -9 -30 -13 -30 -10 0 4 -12 -2 -27 -12 -16 -11 -40 -24 -55 -31 -16
-6 -28 -15 -28 -20 0 -11 -30 -11 -31 0 -1 4 -2 11 -4 16 -1 4 -5 24 -9 45 -5
20 -12 40 -17 43 -5 3 -7 9 -4 14 3 5 1 11 -5 15 -5 3 -10 13 -10 21 0 14 -49
96 -61 102 -3 1 -21 16 -39 32 -33 30 -84 46 -130 42 -47 -4 -50 -5 -50 -15 0
-6 -3 -8 -6 -4 -8 8 -64 -44 -64 -60 0 -7 -4 -13 -9 -13 -5 0 -17 -25 -25 -54
-17 -57 -27 -68 -61 -73 -11 -2 -31 -6 -45 -9 -14 -3 -26 -5 -27 -5 -8 3 -42
-40 -48 -60 -13 -40 -7 -98 15 -137 22 -38 81 -86 135 -110 16 -8 38 -18 47
-23 19 -9 56 -17 123 -24 22 -2 41 -4 42 -4 2 -1 -6 -25 -17 -53 -11 -29 -21
-64 -24 -78 -2 -14 -5 -27 -6 -30 -2 -3 -2 -8 -2 -11 0 -3 -3 -23 -8 -44 -5
-24 -5 -46 1 -57 7 -12 6 -18 -1 -18 -6 0 -8 -5 -4 -12 4 -6 8 -32 8 -57 1
-25 5 -52 9 -58 5 -7 6 -17 2 -23 -3 -5 -2 -17 4 -27 10 -20 52 -150 55 -170
1 -7 5 -16 9 -19 4 -4 7 -16 7 -26 0 -10 4 -18 9 -18 12 0 23 -61 26 -140 2
-40 10 -83 23 -110 l20 -44 -27 -20 c-14 -11 -28 -24 -31 -28 -7 -8 -57 -28
-90 -35 -40 -8 -55 -11 -60 -14 -3 -1 -9 -3 -15 -3 -5 -1 -20 -7 -32 -14 -13
-7 -23 -10 -23 -7 0 9 -114 -66 -123 -81 -4 -7 -13 -19 -20 -26 -47 -47 -54
-142 -16 -200 22 -35 72 -66 138 -87 42 -14 60 -37 61 -78 0 -18 5 -33 11 -33
5 0 8 -4 5 -9 -3 -4 6 -21 19 -37 14 -16 25 -25 25 -20 0 5 6 4 13 -3 32 -26
167 15 167 51 0 6 3 8 6 5 8 -7 44 36 44 52 0 6 5 11 11 11 6 0 9 7 5 15 -3 8
-1 15 4 15 9 0 20 27 19 44 0 5 4 12 10 15 11 7 21 58 25 131 4 71 14 91 83
160 61 62 65 64 79 46 8 -11 14 -30 14 -43 0 -33 1 -37 9 -48 5 -5 9 -34 10
-64 1 -30 6 -62 11 -71 5 -10 6 -20 3 -24 -3 -3 -1 -6 6 -6 6 0 23 -8 38 -17
14 -10 33 -19 42 -21 30 -6 36 -8 50 -16 23 -14 370 -12 414 3 21 7 45 14 53
15 9 1 19 7 22 13 4 6 17 13 30 17 30 10 41 33 46 104 4 65 23 119 44 127 7 3
10 0 7 -5 -3 -6 1 -10 9 -10 9 0 16 -4 16 -10 0 -5 13 -23 30 -40 33 -34 58
-77 64 -112 3 -13 5 -23 6 -23 1 0 3 -11 6 -25 2 -14 7 -32 11 -40 3 -8 7 -22
9 -30 8 -40 98 -167 115 -162 5 1 9 -2 9 -7 0 -9 44 -28 46 -20 0 2 7 -1 15
-7 38 -30 146 8 175 62 10 19 23 34 28 34 5 0 7 3 4 6 -4 3 0 21 8 40 8 19 12
34 9 34 -3 0 3 8 13 18 9 10 22 17 28 15 7 -3 15 1 19 6 3 6 10 9 15 6 18 -11
80 24 91 52 17 42 17 122 0 128 -8 3 -11 8 -8 11 6 6 -6 24 -31 47 -34 32 -42
38 -42 31 0 -4 -8 3 -19 14 -10 12 -21 19 -25 15 -3 -3 -6 0 -6 7 0 7 -3 11
-6 7 -3 -3 -22 3 -41 14 -30 17 -92 31 -130 29 -7 0 -19 0 -25 -1 -52 -2 -145
45 -147 75 -1 6 11 27 25 48 29 41 34 63 39 153 1 33 8 74 15 90 21 52 88 259
95 295 15 76 15 222 0 284 -9 33 -17 69 -19 78 -3 9 -10 26 -16 37 -9 18 -7
21 12 25 13 3 37 8 53 12 17 4 33 7 38 6 4 -1 7 2 7 8 0 6 3 9 8 9 4 -1 9 0
12 1 3 1 13 3 22 5 10 2 30 12 46 24 16 11 32 18 36 14 3 -3 6 2 6 12 0 10 3
16 6 12 7 -7 44 29 44 43 0 6 5 10 12 10 6 0 9 3 5 6 -3 4 0 13 8 21 14 14 17
27 18 83 1 30 -43 121 -54 114 -4 -2 -11 1 -15 7 -7 12 -74 44 -86 41 -5 -1
-8 3 -8 8 0 5 -3 9 -7 9 -22 -4 -43 2 -38 10 3 5 1 12 -5 16 -6 4 -8 10 -5 15
3 5 1 11 -5 15 -6 4 -8 10 -5 15 11 18 -24 79 -55 95 -31 16 -120 19 -120 3z
m-321 -999 c75 -20 114 -50 143 -110 33 -67 42 -139 25 -191 -10 -31 -22 -35
-41 -15 -10 9 -37 12 -92 10 -112 -5 -131 -7 -140 -15 -4 -5 -16 -8 -26 -8
-10 0 -21 -7 -24 -15 -4 -8 -9 -13 -13 -11 -11 7 -11 -37 1 -51 7 -9 7 -13 -1
-13 -6 0 -11 5 -11 11 0 5 -4 7 -10 4 -5 -3 -10 -1 -10 4 0 6 -5 11 -10 11
-18 0 -46 33 -70 79 -35 69 -34 261 1 261 5 0 9 7 9 15 0 8 7 15 15 15 8 0 15
5 15 10 0 6 3 9 8 8 4 0 14 1 22 5 8 3 22 7 30 10 27 7 132 -1 179 -14z m-619
-3 c0 -5 3 -7 6 -3 4 3 20 -1 37 -9 33 -18 76 -54 63 -54 -5 0 -4 -6 2 -12 5
-7 8 -40 6 -73 -3 -33 -5 -72 -5 -87 -1 -16 -5 -28 -10 -28 -5 0 -6 -7 -3 -15
4 -8 1 -21 -5 -29 -6 -7 -8 -16 -4 -19 3 -4 1 -7 -5 -7 -7 0 -12 -7 -12 -15 0
-8 -7 -15 -16 -15 -14 0 -15 2 -3 17 10 11 10 14 2 9 -10 -5 -11 -1 -4 17 7
17 6 29 -2 37 -9 10 -9 11 1 5 11 -6 11 -3 1 14 -10 14 -15 17 -21 8 -5 -8 -8
-6 -8 6 0 10 -4 16 -9 12 -5 -3 -13 0 -16 6 -4 5 -13 8 -21 5 -8 -3 -14 0 -14
7 0 8 -4 6 -10 -3 -5 -8 -10 -10 -10 -4 0 6 -7 11 -15 11 -10 0 -12 -4 -5 -12
8 -9 1 -11 -27 -9 -20 1 -33 0 -28 -4 15 -10 18 -35 4 -26 -9 5 -10 2 -6 -9 4
-12 2 -14 -10 -10 -10 4 -14 2 -10 -4 8 -12 -51 -12 -70 0 -8 5 -13 3 -13 -5
0 -9 -3 -9 -8 -2 -9 14 -43 14 -61 0 -11 -8 -13 -8 -7 2 4 7 1 12 -9 12 -9 0
-13 5 -10 10 5 8 12 7 23 -2 13 -10 13 -8 -1 9 -17 20 -17 22 -2 30 9 6 16 13
16 16 -3 19 1 23 18 23 11 0 18 -4 15 -7 -2 -4 0 -10 6 -14 6 -4 7 -12 3 -18
-4 -7 0 -6 10 2 20 16 23 25 5 15 -8 -4 -8 -2 1 7 10 11 15 11 18 2 3 -7 8
-13 13 -13 10 0 8 20 -4 39 -6 10 -5 12 2 7 8 -4 12 0 12 11 1 24 22 51 37 46
6 -2 14 1 18 7 5 8 12 7 23 -2 15 -11 15 -11 4 3 -8 11 -21 14 -39 11 -15 -3
-23 -1 -20 4 3 6 -3 11 -14 11 -12 1 -17 -2 -12 -10 3 -7 -3 -4 -14 6 -14 12
-23 15 -28 8 -4 -7 -10 -7 -19 2 -16 14 -10 37 10 37 8 0 14 4 14 9 0 8 78 35
125 44 40 7 115 3 115 -7z m228 -477 c-12 -7 -24 -7 -35 0 -15 9 -12 10 17 10
29 0 32 -1 18 -10z"/>
</g>
</svg>
